# xmcd
#
# Track frame offsets: 
#        150
#        11624
#        21474
#        32423
#        41027
#        52480
#        61453
#        70716
#        83286
#        94929
#        106002
#        115125
#        125024
#        137202
#        147763
#        157933
#        168716
#        178639
#        188597
#        196486
#
# Disc length: 2768 seconds
#
# Revision: 3
# Processed by: cddbd v1.5.2PL0 Copyright (c) Steve Scherf et al.
# Submitted via: ExactAudioCopyFreeDBPlugin 1.0
#
DISCID=140ace14
DTITLE=Johnny Cash - The Complete Sun Recordings - 1955-1958 - CD1
DYEAR=2005
DGENRE=Country
TTITLE0=Wide Open Road
TTITLE1=Hey, Porter
TTITLE2=Cry, Cry, Cry
TTITLE3=My Two Timin' Woman
TTITLE4=Port of Lonely Hearts
TTITLE5=I Couldn't Keep from Crying
TTITLE6=Trail to Mexico
TTITLE7=Folsom Prison Blues
TTITLE8=So Doggone Lonesome
TTITLE9=Mean Eyed Cat
TTITLE10=Luther Played the Boogie
TTITLE11=Get Rhythm
TTITLE12=I Walk the Line
TTITLE13=Train of Love
TTITLE14=There You Go
TTITLE15=I Love You Because
TTITLE16=Goodbye Little Darlin'
TTITLE17=Straight A's in Love
TTITLE18=You're My Baby (Little Woolly Booger) (Includes False Startes
TTITLE18=)
TTITLE19=My Treasure (Includes False Startes)
EXTD=YEAR: 2005
EXTT0=
EXTT1=
EXTT2=
EXTT3=
EXTT4=
EXTT5=
EXTT6=
EXTT7=
EXTT8=
EXTT9=
EXTT10=
EXTT11=
EXTT12=
EXTT13=
EXTT14=
EXTT15=
EXTT16=
EXTT17=
EXTT18=
EXTT19=
PLAYORDER=
